<?xml version="1.0" encoding="UTF-8" standalone="no"?>
<svg width="1600" height="900" viewBox="0 0 1600 900" xmlns="http://www.w3.org/2000/svg">
  <defs>
    <linearGradient id="sky" x1="0%" y1="0%" x2="0%" y2="100%">
      <stop offset="0%" style="stop-color:#c7d6df;stop-opacity:1" />
      <stop offset="100%" style="stop-color:#e9efef;stop-opacity:1" />
    </linearGradient>
  </defs>
  
  <!-- Background sky -->
  <rect width="1600" height="900" fill="url(#sky)" />
  
  <!-- City skyline -->
  <g transform="translate(300, 400)" opacity="0.8">
    <rect x="0" y="0" width="30" height="150" fill="#ffffff" />
    <rect x="40" y="20" width="20" height="130" fill="#ffffff" />
    <rect x="70" y="-50" width="15" height="200" fill="#ffffff" />
    <rect x="100" y="30" width="25" height="120" fill="#ffffff" />
    <rect x="130" y="10" width="35" height="140" fill="#ffffff" />
    <rect x="180" y="-30" width="10" height="180" fill="#ffffff" />
    <rect x="200" y="40" width="30" height="110" fill="#ffffff" />
    <rect x="240" y="20" width="20" height="130" fill="#ffffff" />
    
    <!-- Clock tower -->
    <rect x="280" y="-80" width="15" height="230" fill="#ffffff" />
    <circle cx="287" cy="-60" r="10" fill="#ffffff" stroke="#c7d6df" stroke-width="2" />
  </g>
  
  <!-- Globe -->
  <circle cx="800" cy="350" r="150" fill="none" stroke="#ffffff" stroke-width="2" opacity="0.8" />
  <circle cx="800" cy="350" r="147" fill="none" stroke="#ffffff" stroke-width="1" opacity="0.5" />
  <path d="M650,350 Q725,300 800,350 T950,350" fill="none" stroke="#ffffff" stroke-width="1" opacity="0.6" />
  <path d="M650,370 Q725,420 800,370 T950,370" fill="none" stroke="#ffffff" stroke-width="1" opacity="0.6" />
  <path d="M650,330 Q725,280 800,330 T950,330" fill="none" stroke="#ffffff" stroke-width="1" opacity="0.6" />
  <ellipse cx="800" cy="350" rx="150" ry="70" fill="none" stroke="#ffffff" stroke-width="1" opacity="0.6" />
  
  <!-- Airplanes -->
  <g transform="translate(750, 120) rotate(15)">
    <path d="M0,0 L100,0 L90,10 L100,20 L0,20 L10,10 Z" fill="#ffffff" />
    <rect x="-20" y="5" width="20" height="10" fill="#ffffff" />
    <rect x="30" y="-10" width="40" height="5" fill="#ffffff" />
    <rect x="30" y="25" width="40" height="5" fill="#ffffff" />
    <circle cx="20" cy="10" r="5" fill="#606060" />
    <circle cx="80" cy="10" r="5" fill="#606060" />
  </g>
  
  <g transform="translate(1100, 200) rotate(-10) scale(0.8)">
    <path d="M0,0 L100,0 L90,10 L100,20 L0,20 L10,10 Z" fill="#ffffff" />
    <rect x="-20" y="5" width="20" height="10" fill="#ffffff" />
    <rect x="30" y="-10" width="40" height="5" fill="#ffffff" />
    <rect x="30" y="25" width="40" height="5" fill="#ffffff" />
    <circle cx="20" cy="10" r="5" fill="#606060" />
    <circle cx="80" cy="10" r="5" fill="#606060" />
  </g>
  
  <!-- Trains -->
  <g transform="translate(300, 550)">
    <!-- Modern high-speed train -->
    <path d="M0,20 L100,20 C110,20 110,0 120,0 L180,0 C190,0 190,20 200,20 L220,20 L220,50 L0,50 Z" fill="#ffffff" />
    <rect x="10" y="25" width="20" height="10" fill="#a0c0d0" opacity="0.7" />
    <rect x="40" y="25" width="20" height="10" fill="#a0c0d0" opacity="0.7" />
    <rect x="70" y="25" width="20" height="10" fill="#a0c0d0" opacity="0.7" />
    <rect x="130" y="25" width="20" height="10" fill="#a0c0d0" opacity="0.7" />
    <rect x="160" y="25" width="20" height="10" fill="#a0c0d0" opacity="0.7" />
    <rect x="190" y="25" width="20" height="10" fill="#a0c0d0" opacity="0.7" />
    <circle cx="30" cy="50" r="8" fill="#a0a0a0" />
    <circle cx="90" cy="50" r="8" fill="#a0a0a0" />
    <circle cx="150" cy="50" r="8" fill="#a0a0a0" />
    <circle cx="210" cy="50" r="8" fill="#a0a0a0" />
  </g>
  
  <g transform="translate(550, 560)">
    <!-- Steam locomotive -->
    <rect x="0" y="0" width="60" height="30" fill="#ffffff" />
    <rect x="60" y="10" width="80" height="20" fill="#ffffff" />
    <rect x="140" y="15" width="60" height="15" fill="#ffffff" />
    <path d="M0,15 L-20,15 L-20,40 L0,40 Z" fill="#ffffff" />
    <circle cx="10" cy="30" r="8" fill="#a0a0a0" />
    <circle cx="30" cy="30" r="8" fill="#a0a0a0" />
    <circle cx="50" cy="30" r="8" fill="#a0a0a0" />
    <circle cx="80" cy="30" r="6" fill="#a0a0a0" />
    <circle cx="110" cy="30" r="6" fill="#a0a0a0" />
    <circle cx="140" cy="30" r="6" fill="#a0a0a0" />
    <circle cx="170" cy="30" r="6" fill="#a0a0a0" />
    <rect x="0" y="-15" width="10" height="15" fill="#ffffff" />
  </g>
  
  <g transform="translate(800, 570)">
    <!-- Metro/subway train -->
    <rect x="0" y="0" width="120" height="20" rx="5" fill="#ffffff" />
    <rect x="10" y="5" width="15" height="10" fill="#a0c0d0" opacity="0.7" />
    <rect x="35" y="5" width="15" height="10" fill="#a0c0d0" opacity="0.7" />
    <rect x="60" y="5" width="15" height="10" fill="#a0c0d0" opacity="0.7" />
    <rect x="85" y="5" width="15" height="10" fill="#a0c0d0" opacity="0.7" />
    <circle cx="20" cy="20" r="5" fill="#a0a0a0" />
    <circle cx="50" cy="20" r="5" fill="#a0a0a0" />
    <circle cx="80" cy="20" r="5" fill="#a0a0a0" />
    <circle cx="110" cy="20" r="5" fill="#a0a0a0" />
  </g>
  
  <!-- Abstract railway tracks and circular paths -->
  <ellipse cx="800" cy="600" rx="600" ry="100" fill="none" stroke="#ffffff" stroke-width="1" opacity="0.3" />
  <ellipse cx="800" cy="600" rx="590" ry="95" fill="none" stroke="#ffffff" stroke-width="1" opacity="0.2" />
  <ellipse cx="800" cy="600" rx="580" ry="90" fill="none" stroke="#ffffff" stroke-width="1" opacity="0.1" />
  
  <!-- Add sparkles and dots for a tech feel -->
  <g opacity="0.6">
    <circle cx="200" cy="150" r="1" fill="#ffffff" />
    <circle cx="500" cy="200" r="1" fill="#ffffff" />
    <circle cx="900" cy="120" r="1" fill="#ffffff" />
    <circle cx="1200" cy="300" r="1" fill="#ffffff" />
    <circle cx="600" cy="400" r="1" fill="#ffffff" />
    <circle cx="1000" cy="500" r="1" fill="#ffffff" />
    <circle cx="300" cy="600" r="1" fill="#ffffff" />
    <circle cx="700" cy="700" r="1" fill="#ffffff" />
    <circle cx="1100" cy="150" r="1" fill="#ffffff" />
    <circle cx="1300" cy="450" r="1" fill="#ffffff" />
  </g>
</svg>