<?xml version="1.0" encoding="UTF-8" standalone="no"?>
<svg width="1600" height="900" viewBox="0 0 1600 900" xmlns="http://www.w3.org/2000/svg">
  <defs>
    <linearGradient id="sky" x1="0%" y1="0%" x2="0%" y2="100%">
      <stop offset="0%" style="stop-color:#D8E5EB;stop-opacity:1" />
      <stop offset="100%" style="stop-color:#E9EFF2;stop-opacity:1" />
    </linearGradient>
  </defs>
  
  <!-- Background sky -->
  <rect width="1600" height="900" fill="url(#sky)" />
  
  <!-- Abstract clouds -->
  <g opacity="0.2">
    <ellipse cx="200" cy="150" rx="160" ry="60" fill="#FFFFFF" />
    <ellipse cx="800" cy="100" rx="200" ry="50" fill="#FFFFFF" />
    <ellipse cx="1300" cy="180" rx="180" ry="40" fill="#FFFFFF" />
    <ellipse cx="500" cy="200" rx="150" ry="40" fill="#FFFFFF" />
    <ellipse cx="1100" cy="120" rx="120" ry="30" fill="#FFFFFF" />
  </g>
  
  <!-- Stylized planes -->
  <g transform="translate(1400, 250) scale(0.5) rotate(15)">
    <path d="M100,30 L300,100 L180,100 L200,120 L100,130 L80,100 Z" fill="#6B91B3" />
    <rect x="70" y="90" width="30" height="20" fill="#6B91B3" />
  </g>
  
  <g transform="translate(300, 350) scale(0.3) rotate(-10)">
    <path d="M100,30 L300,100 L180,100 L200,120 L100,130 L80,100 Z" fill="#6B91B3" />
    <rect x="70" y="90" width="30" height="20" fill="#6B91B3" />
  </g>
  
  <!-- Stylized cars on roads -->
  <g transform="translate(0, 700)">
    <!-- Road -->
    <rect x="0" y="50" width="1600" height="20" fill="#333333" opacity="0.2" />
    
    <!-- Cars -->
    <g transform="translate(200, 45) scale(0.5)">
      <rect x="0" y="0" width="80" height="30" rx="10" fill="#6B91B3" />
      <rect x="15" y="-10" width="40" height="20" rx="5" fill="#6B91B3" />
      <circle cx="20" cy="30" r="8" fill="#333" />
      <circle cx="60" cy="30" r="8" fill="#333" />
    </g>
    
    <g transform="translate(500, 45) scale(0.5)">
      <rect x="0" y="0" width="80" height="30" rx="10" fill="#A4C2D9" />
      <rect x="15" y="-10" width="40" height="20" rx="5" fill="#A4C2D9" />
      <circle cx="20" cy="30" r="8" fill="#333" />
      <circle cx="60" cy="30" r="8" fill="#333" />
    </g>
    
    <g transform="translate(900, 45) scale(0.5)">
      <rect x="0" y="0" width="80" height="30" rx="10" fill="#7F99AC" />
      <rect x="15" y="-10" width="40" height="20" rx="5" fill="#7F99AC" />
      <circle cx="20" cy="30" r="8" fill="#333" />
      <circle cx="60" cy="30" r="8" fill="#333" />
    </g>
    
    <g transform="translate(1300, 45) scale(0.5)">
      <rect x="0" y="0" width="80" height="30" rx="10" fill="#6B91B3" />
      <rect x="15" y="-10" width="40" height="20" rx="5" fill="#6B91B3" />
      <circle cx="20" cy="30" r="8" fill="#333" />
      <circle cx="60" cy="30" r="8" fill="#333" />
    </g>
  </g>
  
  <!-- Stylized boats on water -->
  <g transform="translate(0, 800)">
    <!-- Water -->
    <rect x="0" y="0" width="1600" height="100" fill="#A4C2D9" opacity="0.3" />
    
    <!-- Boats -->
    <g transform="translate(300, -20) scale(0.6)">
      <path d="M20,20 L100,20 L120,60 L0,60 Z" fill="#6B91B3" />
      <rect x="50" y="-20" width="10" height="40" fill="#6B91B3" />
    </g>
    
    <g transform="translate(800, -15) scale(0.5)">
      <path d="M20,20 L100,20 L120,60 L0,60 Z" fill="#7F99AC" />
      <rect x="50" y="-20" width="10" height="40" fill="#7F99AC" />
    </g>
    
    <g transform="translate(1200, -25) scale(0.7)">
      <path d="M20,20 L100,20 L120,60 L0,60 Z" fill="#6B91B3" />
      <rect x="50" y="-20" width="10" height="40" fill="#6B91B3" />
    </g>
  </g>
  
  <!-- Abstract train tracks -->
  <g transform="translate(0, 600)">
    <!-- Tracks -->
    <rect x="0" y="0" width="1600" height="5" fill="#333" opacity="0.2" />
    <g>
      <rect x="20" y="-5" width="5" height="15" fill="#333" opacity="0.2" />
      <rect x="120" y="-5" width="5" height="15" fill="#333" opacity="0.2" />
      <rect x="220" y="-5" width="5" height="15" fill="#333" opacity="0.2" />
      <rect x="320" y="-5" width="5" height="15" fill="#333" opacity="0.2" />
      <rect x="420" y="-5" width="5" height="15" fill="#333" opacity="0.2" />
      <rect x="520" y="-5" width="5" height="15" fill="#333" opacity="0.2" />
      <rect x="620" y="-5" width="5" height="15" fill="#333" opacity="0.2" />
      <rect x="720" y="-5" width="5" height="15" fill="#333" opacity="0.2" />
      <rect x="820" y="-5" width="5" height="15" fill="#333" opacity="0.2" />
      <rect x="920" y="-5" width="5" height="15" fill="#333" opacity="0.2" />
      <rect x="1020" y="-5" width="5" height="15" fill="#333" opacity="0.2" />
      <rect x="1120" y="-5" width="5" height="15" fill="#333" opacity="0.2" />
      <rect x="1220" y="-5" width="5" height="15" fill="#333" opacity="0.2" />
      <rect x="1320" y="-5" width="5" height="15" fill="#333" opacity="0.2" />
      <rect x="1420" y="-5" width="5" height="15" fill="#333" opacity="0.2" />
      <rect x="1520" y="-5" width="5" height="15" fill="#333" opacity="0.2" />
    </g>
    
    <!-- Train -->
    <g transform="translate(400, -40)">
      <rect x="0" y="0" width="120" height="40" rx="5" fill="#6B91B3" />
      <rect x="130" y="10" width="80" height="30" rx="5" fill="#6B91B3" />
      <rect x="220" y="10" width="80" height="30" rx="5" fill="#6B91B3" />
      <circle cx="30" cy="40" r="8" fill="#333" />
      <circle cx="90" cy="40" r="8" fill="#333" />
      <circle cx="160" cy="40" r="8" fill="#333" />
      <circle cx="260" cy="40" r="8" fill="#333" />
    </g>
  </g>
  
  <!-- Additional decorative elements -->
  <g opacity="0.1">
    <!-- Compass rose -->
    <circle cx="100" cy="100" r="40" fill="none" stroke="#333" stroke-width="2" />
    <path d="M100,60 L100,140 M60,100 L140,100" stroke="#333" stroke-width="2" />
    <path d="M75,75 L125,125 M125,75 L75,125" stroke="#333" stroke-width="1" />
    
    <!-- Grid lines -->
    <path d="M0,400 L1600,400" stroke="#333" stroke-width="0.5" opacity="0.3" />
    <path d="M0,500 L1600,500" stroke="#333" stroke-width="0.5" opacity="0.3" />
    <path d="M400,0 L400,900" stroke="#333" stroke-width="0.5" opacity="0.3" />
    <path d="M800,0 L800,900" stroke="#333" stroke-width="0.5" opacity="0.3" />
    <path d="M1200,0 L1200,900" stroke="#333" stroke-width="0.5" opacity="0.3" />
  </g>
</svg>